<?xml version="1.0" encoding="utf-8" standalone="no"?>
<!DOCTYPE svg PUBLIC "-//W3C//DTD SVG 1.1//EN"
  "http://www.w3.org/Graphics/SVG/1.1/DTD/svg11.dtd">
<!-- Created with matplotlib (https://matplotlib.org/) -->
<svg height="307.762pt" version="1.1" viewBox="0 0 415.645 307.762" width="415.645pt" xmlns="http://www.w3.org/2000/svg" xmlns:xlink="http://www.w3.org/1999/xlink">
 <defs>
  <style type="text/css">
*{stroke-linecap:butt;stroke-linejoin:round;}
  </style>
 </defs>
 <g id="figure_1">
  <g id="patch_1">
   <path d="M 0 307.762 
L 415.645 307.762 
L 415.645 0 
L 0 0 
z
" style="fill:#ffffff;"/>
  </g>
  <g id="axes_1">
   <g id="patch_2">
    <path d="M 51.325 273.312 
L 408.445 273.312 
L 408.445 7.2 
L 51.325 7.2 
z
" style="fill:#ffffff;"/>
   </g>
   <g id="matplotlib.axis_1">
    <g id="xtick_1">
     <g id="line2d_1">
      <path clip-path="url(#p8e0df9e834)" d="M 69.584545 273.312 
L 69.584545 7.2 
" style="fill:none;stroke:#b0b0b0;stroke-linecap:square;stroke-width:0.8;"/>
     </g>
     <g id="line2d_2">
      <defs>
       <path d="M 0 0 
L 0 3.5 
" id="m20aeb531c2" style="stroke:#000000;stroke-width:0.8;"/>
      </defs>
      <g>
       <use style="stroke:#000000;stroke-width:0.8;" x="69.584545" xlink:href="#m20aeb531c2" y="273.312"/>
      </g>
     </g>
     <g id="text_1">
      <!-- 0.36 -->
      <defs>
       <path d="M 3.125 29.296875 
Q 3.90625 50 6.4375 56.046875 
Q 8.984375 62.109375 13.671875 66.015625 
Q 18.359375 69.921875 25.1875 69.921875 
Q 32.03125 69.921875 37.109375 64.25 
Q 42.1875 58.59375 43.75 50 
Q 45.3125 41.40625 44.71875 30.265625 
Q 44.140625 19.140625 40.8125 12.109375 
Q 37.5 5.078125 30.859375 2.34375 
Q 24.21875 -0.390625 17.578125 2.921875 
Q 10.9375 6.25 8.203125 11.71875 
Q 5.46875 17.1875 4.296875 23.234375 
Q 3.125 29.296875 3.90625 50 
z
M 12.890625 52.734375 
Q 10.546875 31.25 12.5 22.84375 
Q 14.453125 14.453125 18.9375 10.9375 
Q 23.4375 7.421875 28.125 9.5625 
Q 32.8125 11.71875 34.953125 18.15625 
Q 37.109375 24.609375 37.109375 32.21875 
Q 37.109375 39.84375 36.515625 46.09375 
Q 35.9375 52.34375 33 57.421875 
Q 30.078125 62.5 25.1875 62.6875 
Q 20.3125 62.890625 16.59375 57.8125 
Q 12.890625 52.734375 10.546875 31.25 
z
" id="SimHei-48"/>
       <path d="M 16.796875 1.953125 
L 7.8125 1.953125 
L 7.8125 10.546875 
L 16.796875 10.546875 
z
" id="SimHei-46"/>
       <path d="M 3.90625 19.140625 
L 10.9375 20.3125 
Q 12.5 15.234375 16.015625 11.90625 
Q 19.53125 8.59375 24.796875 8.78125 
Q 30.078125 8.984375 33.203125 13.078125 
Q 36.328125 17.1875 35.9375 22.453125 
Q 35.546875 27.734375 31.828125 30.65625 
Q 28.125 33.59375 19.921875 34.765625 
L 19.921875 39.84375 
Q 28.125 40.625 31.828125 44.140625 
Q 35.546875 47.65625 35.15625 53.3125 
Q 34.765625 58.984375 30.078125 61.515625 
Q 25.390625 64.0625 20.109375 62.109375 
Q 14.84375 60.15625 11.71875 51.171875 
L 4.6875 52.34375 
Q 7.03125 59.375 11.125 64.0625 
Q 15.234375 68.75 22.265625 69.53125 
Q 29.296875 70.3125 34.5625 67.765625 
Q 39.84375 65.234375 41.984375 59.953125 
Q 44.140625 54.6875 42.578125 48.4375 
Q 41.015625 42.1875 33.59375 37.5 
Q 39.0625 35.15625 41.984375 30.46875 
Q 44.921875 25.78125 43.9375 18.15625 
Q 42.96875 10.546875 37.109375 5.859375 
Q 31.25 1.171875 23.828125 1.359375 
Q 16.40625 1.5625 10.9375 6.046875 
Q 5.46875 10.546875 3.90625 19.140625 
z
" id="SimHei-51"/>
       <path d="M 3.515625 19.53125 
Q 4.296875 30.859375 6.046875 34.765625 
Q 7.8125 38.671875 11.328125 44.53125 
L 27.34375 69.53125 
L 36.328125 69.53125 
L 19.921875 43.75 
Q 30.46875 46.484375 36.71875 42.96875 
Q 42.96875 39.453125 45.109375 34.953125 
Q 47.265625 30.46875 47.453125 25.1875 
Q 47.65625 19.921875 45.890625 14.84375 
Q 44.140625 9.765625 39.640625 5.65625 
Q 35.15625 1.5625 27.140625 1.171875 
Q 19.140625 0.78125 13.46875 4.09375 
Q 7.8125 7.421875 5.65625 13.46875 
Q 3.515625 19.53125 4.296875 30.859375 
z
M 12.5 16.015625 
Q 19.53125 8.59375 25.390625 8.203125 
Q 31.25 7.8125 35.15625 12.109375 
Q 39.0625 16.40625 39.0625 24.609375 
Q 39.0625 32.8125 34.171875 35.9375 
Q 29.296875 39.0625 23.234375 38.28125 
Q 17.1875 37.5 14.453125 32.421875 
Q 11.71875 27.34375 12.109375 21.671875 
Q 12.5 16.015625 19.53125 8.59375 
z
" id="SimHei-54"/>
      </defs>
      <g transform="translate(59.584545 287.187)scale(0.1 -0.1)">
       <use xlink:href="#SimHei-48"/>
       <use x="50" xlink:href="#SimHei-46"/>
       <use x="100" xlink:href="#SimHei-51"/>
       <use x="150" xlink:href="#SimHei-54"/>
      </g>
     </g>
    </g>
    <g id="xtick_2">
     <g id="line2d_3">
      <path clip-path="url(#p8e0df9e834)" d="M 145.667497 273.312 
L 145.667497 7.2 
" style="fill:none;stroke:#b0b0b0;stroke-linecap:square;stroke-width:0.8;"/>
     </g>
     <g id="line2d_4">
      <g>
       <use style="stroke:#000000;stroke-width:0.8;" x="145.667497" xlink:href="#m20aeb531c2" y="273.312"/>
      </g>
     </g>
     <g id="text_2">
      <!-- 0.38 -->
      <defs>
       <path d="M 2.734375 16.796875 
Q 2.734375 26.171875 5.078125 30.65625 
Q 7.421875 35.15625 12.890625 37.890625 
Q 8.203125 40.625 6.640625 43.9375 
Q 5.078125 47.265625 4.875 51.5625 
Q 4.6875 55.859375 6.046875 58.984375 
Q 7.421875 62.109375 10.15625 64.84375 
Q 12.890625 67.578125 16.203125 68.546875 
Q 19.53125 69.53125 23.4375 69.53125 
Q 27.34375 69.53125 30.46875 68.75 
Q 33.59375 67.96875 37.109375 65.421875 
Q 40.625 62.890625 42.1875 58.203125 
Q 43.75 53.515625 41.984375 47.265625 
Q 40.234375 41.015625 32.8125 37.5 
Q 39.453125 35.546875 42.1875 31.4375 
Q 44.921875 27.34375 44.921875 21.484375 
Q 44.921875 15.625 43.15625 12.109375 
Q 41.40625 8.59375 39.25 6.25 
Q 37.109375 3.90625 33.390625 2.53125 
Q 29.6875 1.171875 24.015625 1.171875 
Q 18.359375 1.171875 14.25 2.53125 
Q 10.15625 3.90625 7.421875 6.640625 
Q 4.6875 9.375 3.703125 13.078125 
Q 2.734375 16.796875 2.734375 26.171875 
z
M 10.9375 26.5625 
Q 10.546875 17.1875 12.296875 13.671875 
Q 14.0625 10.15625 18.75 9.171875 
Q 23.4375 8.203125 28.515625 9.375 
Q 33.59375 10.546875 35.546875 14.84375 
Q 37.5 19.140625 36.90625 23.4375 
Q 36.328125 27.734375 32.03125 30.65625 
Q 27.734375 33.59375 22.65625 33.203125 
Q 17.578125 32.8125 14.25 29.6875 
Q 10.9375 26.5625 10.546875 17.1875 
z
M 12.109375 56.25 
Q 12.109375 48.4375 14.84375 44.921875 
Q 17.578125 41.40625 23.4375 41.40625 
Q 29.296875 41.40625 32.21875 44.921875 
Q 35.15625 48.4375 34.953125 53.3125 
Q 34.765625 58.203125 31.4375 60.546875 
Q 28.125 62.890625 22.453125 62.5 
Q 16.796875 62.109375 14.453125 59.171875 
Q 12.109375 56.25 12.109375 48.4375 
z
" id="SimHei-56"/>
      </defs>
      <g transform="translate(135.667497 287.187)scale(0.1 -0.1)">
       <use xlink:href="#SimHei-48"/>
       <use x="50" xlink:href="#SimHei-46"/>
       <use x="100" xlink:href="#SimHei-51"/>
       <use x="150" xlink:href="#SimHei-56"/>
      </g>
     </g>
    </g>
    <g id="xtick_3">
     <g id="line2d_5">
      <path clip-path="url(#p8e0df9e834)" d="M 221.750449 273.312 
L 221.750449 7.2 
" style="fill:none;stroke:#b0b0b0;stroke-linecap:square;stroke-width:0.8;"/>
     </g>
     <g id="line2d_6">
      <g>
       <use style="stroke:#000000;stroke-width:0.8;" x="221.750449" xlink:href="#m20aeb531c2" y="273.312"/>
      </g>
     </g>
     <g id="text_3">
      <!-- 0.40 -->
      <defs>
       <path d="M 31.25 17.1875 
L 1.171875 17.1875 
L 1.171875 23.828125 
L 32.8125 69.53125 
L 38.671875 69.53125 
L 38.671875 23.828125 
L 48.046875 23.828125 
L 48.046875 17.1875 
L 38.671875 17.1875 
L 38.671875 2.34375 
L 31.25 2.34375 
z
M 31.25 23.828125 
L 31.25 54.6875 
L 9.375 23.828125 
z
" id="SimHei-52"/>
      </defs>
      <g transform="translate(211.750449 287.187)scale(0.1 -0.1)">
       <use xlink:href="#SimHei-48"/>
       <use x="50" xlink:href="#SimHei-46"/>
       <use x="100" xlink:href="#SimHei-52"/>
       <use x="150" xlink:href="#SimHei-48"/>
      </g>
     </g>
    </g>
    <g id="xtick_4">
     <g id="line2d_7">
      <path clip-path="url(#p8e0df9e834)" d="M 297.8334 273.312 
L 297.8334 7.2 
" style="fill:none;stroke:#b0b0b0;stroke-linecap:square;stroke-width:0.8;"/>
     </g>
     <g id="line2d_8">
      <g>
       <use style="stroke:#000000;stroke-width:0.8;" x="297.8334" xlink:href="#m20aeb531c2" y="273.312"/>
      </g>
     </g>
     <g id="text_4">
      <!-- 0.42 -->
      <defs>
       <path d="M 4.6875 3.90625 
Q 5.078125 9.765625 10.15625 14.453125 
Q 15.234375 19.140625 23.046875 29.09375 
Q 30.859375 39.0625 33.203125 44.53125 
Q 35.546875 50 34.953125 53.90625 
Q 34.375 57.8125 31.25 60.34375 
Q 28.125 62.890625 24.015625 62.5 
Q 19.921875 62.109375 16.203125 59.375 
Q 12.5 56.640625 10.546875 51.171875 
L 3.125 52.34375 
Q 6.25 61.328125 11.125 65.421875 
Q 16.015625 69.53125 22.65625 69.921875 
Q 26.5625 70.3125 29.6875 69.71875 
Q 32.8125 69.140625 36.125 66.984375 
Q 39.453125 64.84375 41.59375 60.546875 
Q 43.75 56.25 43.15625 50.1875 
Q 42.578125 44.140625 37.109375 35.734375 
Q 31.640625 27.34375 16.015625 9.375 
L 44.140625 9.375 
L 44.140625 2.34375 
L 4.6875 2.34375 
z
" id="SimHei-50"/>
      </defs>
      <g transform="translate(287.8334 287.187)scale(0.1 -0.1)">
       <use xlink:href="#SimHei-48"/>
       <use x="50" xlink:href="#SimHei-46"/>
       <use x="100" xlink:href="#SimHei-52"/>
       <use x="150" xlink:href="#SimHei-50"/>
      </g>
     </g>
    </g>
    <g id="xtick_5">
     <g id="line2d_9">
      <path clip-path="url(#p8e0df9e834)" d="M 373.916352 273.312 
L 373.916352 7.2 
" style="fill:none;stroke:#b0b0b0;stroke-linecap:square;stroke-width:0.8;"/>
     </g>
     <g id="line2d_10">
      <g>
       <use style="stroke:#000000;stroke-width:0.8;" x="373.916352" xlink:href="#m20aeb531c2" y="273.312"/>
      </g>
     </g>
     <g id="text_5">
      <!-- 0.44 -->
      <g transform="translate(363.916352 287.187)scale(0.1 -0.1)">
       <use xlink:href="#SimHei-48"/>
       <use x="50" xlink:href="#SimHei-46"/>
       <use x="100" xlink:href="#SimHei-52"/>
       <use x="150" xlink:href="#SimHei-52"/>
      </g>
     </g>
    </g>
    <g id="text_6">
     <!-- F1 -->
     <defs>
      <path d="M 45.703125 61.328125 
L 13.671875 61.328125 
L 13.671875 39.453125 
L 37.890625 39.453125 
L 37.890625 32.03125 
L 13.671875 32.03125 
L 13.671875 1.953125 
L 4.6875 1.953125 
L 4.6875 68.75 
L 45.703125 68.75 
z
" id="SimHei-70"/>
      <path d="M 21.875 56.25 
Q 16.796875 51.171875 8.984375 46.484375 
L 8.984375 53.90625 
Q 18.75 60.546875 25 69.53125 
L 29.6875 69.53125 
L 29.6875 2.34375 
L 21.875 2.34375 
z
" id="SimHei-49"/>
     </defs>
     <g transform="translate(224.885 299.312)scale(0.1 -0.1)">
      <use xlink:href="#SimHei-70"/>
      <use x="50" xlink:href="#SimHei-49"/>
     </g>
    </g>
   </g>
   <g id="matplotlib.axis_2">
    <g id="ytick_1">
     <g id="line2d_11">
      <path clip-path="url(#p8e0df9e834)" d="M 51.325 264.481066 
L 408.445 264.481066 
" style="fill:none;stroke:#b0b0b0;stroke-linecap:square;stroke-width:0.8;"/>
     </g>
     <g id="line2d_12">
      <defs>
       <path d="M 0 0 
L -3.5 0 
" id="ma541653132" style="stroke:#000000;stroke-width:0.8;"/>
      </defs>
      <g>
       <use style="stroke:#000000;stroke-width:0.8;" x="51.325" xlink:href="#ma541653132" y="264.481066"/>
      </g>
     </g>
     <g id="text_7">
      <!-- 0.050 -->
      <defs>
       <path d="M 8.59375 20.703125 
Q 11.328125 10.15625 17.96875 8.984375 
Q 24.609375 7.8125 28.703125 10.34375 
Q 32.8125 12.890625 34.5625 16.984375 
Q 36.328125 21.09375 36.125 26.171875 
Q 35.9375 31.25 33.390625 34.765625 
Q 30.859375 38.28125 26.953125 39.453125 
Q 23.046875 40.625 18.15625 39.453125 
Q 13.28125 38.28125 10.15625 33.984375 
L 3.515625 34.765625 
Q 4.296875 37.109375 10.9375 68.359375 
L 41.796875 68.359375 
L 41.796875 61.328125 
L 16.796875 61.328125 
Q 14.84375 50.78125 12.890625 44.53125 
Q 18.75 47.265625 23.828125 47.0625 
Q 28.90625 46.875 33.59375 44.71875 
Q 38.28125 42.578125 40.421875 38.859375 
Q 42.578125 35.15625 43.546875 31.4375 
Q 44.53125 27.734375 44.328125 23.4375 
Q 44.140625 19.140625 42.578125 14.640625 
Q 41.015625 10.15625 37.890625 7.21875 
Q 34.765625 4.296875 30.265625 2.53125 
Q 25.78125 0.78125 19.921875 1.171875 
Q 14.0625 1.5625 8.78125 5.46875 
Q 3.515625 9.375 1.5625 18.75 
z
" id="SimHei-53"/>
      </defs>
      <g transform="translate(19.325 267.918566)scale(0.1 -0.1)">
       <use xlink:href="#SimHei-48"/>
       <use x="50" xlink:href="#SimHei-46"/>
       <use x="100" xlink:href="#SimHei-48"/>
       <use x="150" xlink:href="#SimHei-53"/>
       <use x="200" xlink:href="#SimHei-48"/>
      </g>
     </g>
    </g>
    <g id="ytick_2">
     <g id="line2d_13">
      <path clip-path="url(#p8e0df9e834)" d="M 51.325 231.831701 
L 408.445 231.831701 
" style="fill:none;stroke:#b0b0b0;stroke-linecap:square;stroke-width:0.8;"/>
     </g>
     <g id="line2d_14">
      <g>
       <use style="stroke:#000000;stroke-width:0.8;" x="51.325" xlink:href="#ma541653132" y="231.831701"/>
      </g>
     </g>
     <g id="text_8">
      <!-- 0.075 -->
      <defs>
       <path d="M 13.28125 2.34375 
Q 20.3125 32.03125 37.890625 61.328125 
L 4.296875 61.328125 
L 4.296875 68.359375 
L 46.09375 68.359375 
L 46.09375 61.71875 
Q 27.734375 32.03125 21.875 2.34375 
L 13.28125 2.34375 
z
" id="SimHei-55"/>
      </defs>
      <g transform="translate(19.325 235.269201)scale(0.1 -0.1)">
       <use xlink:href="#SimHei-48"/>
       <use x="50" xlink:href="#SimHei-46"/>
       <use x="100" xlink:href="#SimHei-48"/>
       <use x="150" xlink:href="#SimHei-55"/>
       <use x="200" xlink:href="#SimHei-53"/>
      </g>
     </g>
    </g>
    <g id="ytick_3">
     <g id="line2d_15">
      <path clip-path="url(#p8e0df9e834)" d="M 51.325 199.182336 
L 408.445 199.182336 
" style="fill:none;stroke:#b0b0b0;stroke-linecap:square;stroke-width:0.8;"/>
     </g>
     <g id="line2d_16">
      <g>
       <use style="stroke:#000000;stroke-width:0.8;" x="51.325" xlink:href="#ma541653132" y="199.182336"/>
      </g>
     </g>
     <g id="text_9">
      <!-- 0.100 -->
      <g transform="translate(19.325 202.619836)scale(0.1 -0.1)">
       <use xlink:href="#SimHei-48"/>
       <use x="50" xlink:href="#SimHei-46"/>
       <use x="100" xlink:href="#SimHei-49"/>
       <use x="150" xlink:href="#SimHei-48"/>
       <use x="200" xlink:href="#SimHei-48"/>
      </g>
     </g>
    </g>
    <g id="ytick_4">
     <g id="line2d_17">
      <path clip-path="url(#p8e0df9e834)" d="M 51.325 166.532971 
L 408.445 166.532971 
" style="fill:none;stroke:#b0b0b0;stroke-linecap:square;stroke-width:0.8;"/>
     </g>
     <g id="line2d_18">
      <g>
       <use style="stroke:#000000;stroke-width:0.8;" x="51.325" xlink:href="#ma541653132" y="166.532971"/>
      </g>
     </g>
     <g id="text_10">
      <!-- 0.125 -->
      <g transform="translate(19.325 169.970471)scale(0.1 -0.1)">
       <use xlink:href="#SimHei-48"/>
       <use x="50" xlink:href="#SimHei-46"/>
       <use x="100" xlink:href="#SimHei-49"/>
       <use x="150" xlink:href="#SimHei-50"/>
       <use x="200" xlink:href="#SimHei-53"/>
      </g>
     </g>
    </g>
    <g id="ytick_5">
     <g id="line2d_19">
      <path clip-path="url(#p8e0df9e834)" d="M 51.325 133.883606 
L 408.445 133.883606 
" style="fill:none;stroke:#b0b0b0;stroke-linecap:square;stroke-width:0.8;"/>
     </g>
     <g id="line2d_20">
      <g>
       <use style="stroke:#000000;stroke-width:0.8;" x="51.325" xlink:href="#ma541653132" y="133.883606"/>
      </g>
     </g>
     <g id="text_11">
      <!-- 0.150 -->
      <g transform="translate(19.325 137.321106)scale(0.1 -0.1)">
       <use xlink:href="#SimHei-48"/>
       <use x="50" xlink:href="#SimHei-46"/>
       <use x="100" xlink:href="#SimHei-49"/>
       <use x="150" xlink:href="#SimHei-53"/>
       <use x="200" xlink:href="#SimHei-48"/>
      </g>
     </g>
    </g>
    <g id="ytick_6">
     <g id="line2d_21">
      <path clip-path="url(#p8e0df9e834)" d="M 51.325 101.234241 
L 408.445 101.234241 
" style="fill:none;stroke:#b0b0b0;stroke-linecap:square;stroke-width:0.8;"/>
     </g>
     <g id="line2d_22">
      <g>
       <use style="stroke:#000000;stroke-width:0.8;" x="51.325" xlink:href="#ma541653132" y="101.234241"/>
      </g>
     </g>
     <g id="text_12">
      <!-- 0.175 -->
      <g transform="translate(19.325 104.671741)scale(0.1 -0.1)">
       <use xlink:href="#SimHei-48"/>
       <use x="50" xlink:href="#SimHei-46"/>
       <use x="100" xlink:href="#SimHei-49"/>
       <use x="150" xlink:href="#SimHei-55"/>
       <use x="200" xlink:href="#SimHei-53"/>
      </g>
     </g>
    </g>
    <g id="ytick_7">
     <g id="line2d_23">
      <path clip-path="url(#p8e0df9e834)" d="M 51.325 68.584876 
L 408.445 68.584876 
" style="fill:none;stroke:#b0b0b0;stroke-linecap:square;stroke-width:0.8;"/>
     </g>
     <g id="line2d_24">
      <g>
       <use style="stroke:#000000;stroke-width:0.8;" x="51.325" xlink:href="#ma541653132" y="68.584876"/>
      </g>
     </g>
     <g id="text_13">
      <!-- 0.200 -->
      <g transform="translate(19.325 72.022376)scale(0.1 -0.1)">
       <use xlink:href="#SimHei-48"/>
       <use x="50" xlink:href="#SimHei-46"/>
       <use x="100" xlink:href="#SimHei-50"/>
       <use x="150" xlink:href="#SimHei-48"/>
       <use x="200" xlink:href="#SimHei-48"/>
      </g>
     </g>
    </g>
    <g id="ytick_8">
     <g id="line2d_25">
      <path clip-path="url(#p8e0df9e834)" d="M 51.325 35.935511 
L 408.445 35.935511 
" style="fill:none;stroke:#b0b0b0;stroke-linecap:square;stroke-width:0.8;"/>
     </g>
     <g id="line2d_26">
      <g>
       <use style="stroke:#000000;stroke-width:0.8;" x="51.325" xlink:href="#ma541653132" y="35.935511"/>
      </g>
     </g>
     <g id="text_14">
      <!-- 0.225 -->
      <g transform="translate(19.325 39.373011)scale(0.1 -0.1)">
       <use xlink:href="#SimHei-48"/>
       <use x="50" xlink:href="#SimHei-46"/>
       <use x="100" xlink:href="#SimHei-50"/>
       <use x="150" xlink:href="#SimHei-50"/>
       <use x="200" xlink:href="#SimHei-53"/>
      </g>
     </g>
    </g>
    <g id="text_15">
     <!-- F2 -->
     <g transform="translate(14.075 145.256)rotate(-90)scale(0.1 -0.1)">
      <use xlink:href="#SimHei-70"/>
      <use x="50" xlink:href="#SimHei-50"/>
     </g>
    </g>
   </g>
   <g id="line2d_27">
    <defs>
     <path d="M 0 1.5 
C 0.397805 1.5 0.77937 1.341951 1.06066 1.06066 
C 1.341951 0.77937 1.5 0.397805 1.5 0 
C 1.5 -0.397805 1.341951 -0.77937 1.06066 -1.06066 
C 0.77937 -1.341951 0.397805 -1.5 0 -1.5 
C -0.397805 -1.5 -0.77937 -1.341951 -1.06066 -1.06066 
C -1.341951 -0.77937 -1.5 -0.397805 -1.5 0 
C -1.5 0.397805 -1.341951 0.77937 -1.06066 1.06066 
C -0.77937 1.341951 -0.397805 1.5 0 1.5 
z
" id="m85a2364ee4" style="stroke:#4682b4;"/>
    </defs>
    <g clip-path="url(#p8e0df9e834)">
     <use style="fill:#4682b4;stroke:#4682b4;" x="323.445884" xlink:href="#m85a2364ee4" y="183.342137"/>
     <use style="fill:#4682b4;stroke:#4682b4;" x="339.570845" xlink:href="#m85a2364ee4" y="169.294159"/>
     <use style="fill:#4682b4;stroke:#4682b4;" x="364.524571" xlink:href="#m85a2364ee4" y="117.490138"/>
     <use style="fill:#4682b4;stroke:#4682b4;" x="342.845154" xlink:href="#m85a2364ee4" y="163.906985"/>
     <use style="fill:#4682b4;stroke:#4682b4;" x="320.727099" xlink:href="#m85a2364ee4" y="184.475752"/>
     <use style="fill:#4682b4;stroke:#4682b4;" x="273.796467" xlink:href="#m85a2364ee4" y="238.063662"/>
     <use style="fill:#4682b4;stroke:#4682b4;" x="124.55379" xlink:href="#m85a2364ee4" y="259.984732"/>
     <use style="fill:#4682b4;stroke:#4682b4;" x="340.044401" xlink:href="#m85a2364ee4" y="166.84289"/>
     <use style="fill:#4682b4;stroke:#4682b4;" x="330.932886" xlink:href="#m85a2364ee4" y="178.831418"/>
     <use style="fill:#4682b4;stroke:#4682b4;" x="246.64343" xlink:href="#m85a2364ee4" y="242.787581"/>
     <use style="fill:#4682b4;stroke:#4682b4;" x="67.557727" xlink:href="#m85a2364ee4" y="261.216"/>
     <use style="fill:#4682b4;stroke:#4682b4;" x="380.426868" xlink:href="#m85a2364ee4" y="46.74468"/>
     <use style="fill:#4682b4;stroke:#4682b4;" x="328.226119" xlink:href="#m85a2364ee4" y="180.365298"/>
     <use style="fill:#4682b4;stroke:#4682b4;" x="382.939428" xlink:href="#m85a2364ee4" y="41.519779"/>
     <use style="fill:#4682b4;stroke:#4682b4;" x="323.536128" xlink:href="#m85a2364ee4" y="182.200777"/>
     <use style="fill:#4682b4;stroke:#4682b4;" x="392.212273" xlink:href="#m85a2364ee4" y="19.296"/>
     <use style="fill:#4682b4;stroke:#4682b4;" x="252.441976" xlink:href="#m85a2364ee4" y="239.243233"/>
     <use style="fill:#4682b4;stroke:#4682b4;" x="218.124594" xlink:href="#m85a2364ee4" y="247.74921"/>
     <use style="fill:#4682b4;stroke:#4682b4;" x="218.124594" xlink:href="#m85a2364ee4" y="247.74921"/>
     <use style="fill:#4682b4;stroke:#4682b4;" x="359.798641" xlink:href="#m85a2364ee4" y="139.962584"/>
     <use style="fill:#4682b4;stroke:#4682b4;" x="371.681999" xlink:href="#m85a2364ee4" y="59.564485"/>
     <use style="fill:#4682b4;stroke:#4682b4;" x="355.251726" xlink:href="#m85a2364ee4" y="148.130425"/>
     <use style="fill:#4682b4;stroke:#4682b4;" x="320.464642" xlink:href="#m85a2364ee4" y="185.550519"/>
     <use style="fill:#4682b4;stroke:#4682b4;" x="390.740925" xlink:href="#m85a2364ee4" y="23.247404"/>
     <use style="fill:#4682b4;stroke:#4682b4;" x="316.129053" xlink:href="#m85a2364ee4" y="194.701798"/>
     <use style="fill:#4682b4;stroke:#4682b4;" x="206.944485" xlink:href="#m85a2364ee4" y="248.828288"/>
     <use style="fill:#4682b4;stroke:#4682b4;" x="243.960131" xlink:href="#m85a2364ee4" y="245.808061"/>
     <use style="fill:#4682b4;stroke:#4682b4;" x="367.418515" xlink:href="#m85a2364ee4" y="84.83016"/>
     <use style="fill:#4682b4;stroke:#4682b4;" x="310.32994" xlink:href="#m85a2364ee4" y="208.817655"/>
     <use style="fill:#4682b4;stroke:#4682b4;" x="322.268738" xlink:href="#m85a2364ee4" y="184.207586"/>
     <use style="fill:#4682b4;stroke:#4682b4;" x="354.940632" xlink:href="#m85a2364ee4" y="148.393589"/>
     <use style="fill:#4682b4;stroke:#4682b4;" x="325.359837" xlink:href="#m85a2364ee4" y="180.840446"/>
     <use style="fill:#4682b4;stroke:#4682b4;" x="325.048403" xlink:href="#m85a2364ee4" y="181.637044"/>
     <use style="fill:#4682b4;stroke:#4682b4;" x="328.933676" xlink:href="#m85a2364ee4" y="179.371993"/>
     <use style="fill:#4682b4;stroke:#4682b4;" x="306.513144" xlink:href="#m85a2364ee4" y="214.525732"/>
     <use style="fill:#4682b4;stroke:#4682b4;" x="307.540638" xlink:href="#m85a2364ee4" y="212.557824"/>
     <use style="fill:#4682b4;stroke:#4682b4;" x="178.773363" xlink:href="#m85a2364ee4" y="253.086458"/>
     <use style="fill:#4682b4;stroke:#4682b4;" x="363.923923" xlink:href="#m85a2364ee4" y="117.785238"/>
     <use style="fill:#4682b4;stroke:#4682b4;" x="300.213038" xlink:href="#m85a2364ee4" y="219.461304"/>
     <use style="fill:#4682b4;stroke:#4682b4;" x="361.56589" xlink:href="#m85a2364ee4" y="127.422174"/>
     <use style="fill:#4682b4;stroke:#4682b4;" x="296.006354" xlink:href="#m85a2364ee4" y="232.304695"/>
     <use style="fill:#4682b4;stroke:#4682b4;" x="164.298537" xlink:href="#m85a2364ee4" y="255.805523"/>
     <use style="fill:#4682b4;stroke:#4682b4;" x="296.006354" xlink:href="#m85a2364ee4" y="232.304695"/>
     <use style="fill:#4682b4;stroke:#4682b4;" x="335.127212" xlink:href="#m85a2364ee4" y="173.176069"/>
     <use style="fill:#4682b4;stroke:#4682b4;" x="348.584973" xlink:href="#m85a2364ee4" y="149.626259"/>
     <use style="fill:#4682b4;stroke:#4682b4;" x="378.473801" xlink:href="#m85a2364ee4" y="57.410982"/>
     <use style="fill:#4682b4;stroke:#4682b4;" x="381.575218" xlink:href="#m85a2364ee4" y="44.135781"/>
     <use style="fill:#4682b4;stroke:#4682b4;" x="206.944485" xlink:href="#m85a2364ee4" y="248.828288"/>
     <use style="fill:#4682b4;stroke:#4682b4;" x="320.291862" xlink:href="#m85a2364ee4" y="185.5548"/>
     <use style="fill:#4682b4;stroke:#4682b4;" x="294.998813" xlink:href="#m85a2364ee4" y="232.833905"/>
     <use style="fill:#4682b4;stroke:#4682b4;" x="253.727506" xlink:href="#m85a2364ee4" y="238.173195"/>
     <use style="fill:#4682b4;stroke:#4682b4;" x="391.580675" xlink:href="#m85a2364ee4" y="19.410973"/>
     <use style="fill:#4682b4;stroke:#4682b4;" x="291.637774" xlink:href="#m85a2364ee4" y="236.98585"/>
     <use style="fill:#4682b4;stroke:#4682b4;" x="383.053141" xlink:href="#m85a2364ee4" y="40.23404"/>
     <use style="fill:#4682b4;stroke:#4682b4;" x="313.848907" xlink:href="#m85a2364ee4" y="196.177714"/>
     <use style="fill:#4682b4;stroke:#4682b4;" x="277.78661" xlink:href="#m85a2364ee4" y="237.866886"/>
     <use style="fill:#4682b4;stroke:#4682b4;" x="347.644436" xlink:href="#m85a2364ee4" y="156.92073"/>
     <use style="fill:#4682b4;stroke:#4682b4;" x="304.292631" xlink:href="#m85a2364ee4" y="216.636753"/>
     <use style="fill:#4682b4;stroke:#4682b4;" x="379.071501" xlink:href="#m85a2364ee4" y="49.163644"/>
     <use style="fill:#4682b4;stroke:#4682b4;" x="345.484124" xlink:href="#m85a2364ee4" y="158.049772"/>
     <use style="fill:#4682b4;stroke:#4682b4;" x="187.221196" xlink:href="#m85a2364ee4" y="250.408697"/>
     <use style="fill:#4682b4;stroke:#4682b4;" x="345.242187" xlink:href="#m85a2364ee4" y="158.230191"/>
     <use style="fill:#4682b4;stroke:#4682b4;" x="312.580383" xlink:href="#m85a2364ee4" y="200.282166"/>
     <use style="fill:#4682b4;stroke:#4682b4;" x="334.758978" xlink:href="#m85a2364ee4" y="174.483"/>
     <use style="fill:#4682b4;stroke:#4682b4;" x="360.500416" xlink:href="#m85a2364ee4" y="135.145322"/>
     <use style="fill:#4682b4;stroke:#4682b4;" x="298.987935" xlink:href="#m85a2364ee4" y="224.694739"/>
     <use style="fill:#4682b4;stroke:#4682b4;" x="299.40764" xlink:href="#m85a2364ee4" y="222.768117"/>
     <use style="fill:#4682b4;stroke:#4682b4;" x="317.593939" xlink:href="#m85a2364ee4" y="191.474268"/>
     <use style="fill:#4682b4;stroke:#4682b4;" x="67.995005" xlink:href="#m85a2364ee4" y="261.194409"/>
     <use style="fill:#4682b4;stroke:#4682b4;" x="381.575218" xlink:href="#m85a2364ee4" y="44.135781"/>
     <use style="fill:#4682b4;stroke:#4682b4;" x="386.920501" xlink:href="#m85a2364ee4" y="37.178016"/>
     <use style="fill:#4682b4;stroke:#4682b4;" x="247.924085" xlink:href="#m85a2364ee4" y="242.6004"/>
     <use style="fill:#4682b4;stroke:#4682b4;" x="382.939428" xlink:href="#m85a2364ee4" y="41.519779"/>
     <use style="fill:#4682b4;stroke:#4682b4;" x="390.740925" xlink:href="#m85a2364ee4" y="23.247404"/>
     <use style="fill:#4682b4;stroke:#4682b4;" x="379.071501" xlink:href="#m85a2364ee4" y="49.163644"/>
     <use style="fill:#4682b4;stroke:#4682b4;" x="253.280479" xlink:href="#m85a2364ee4" y="238.506048"/>
     <use style="fill:#4682b4;stroke:#4682b4;" x="299.40764" xlink:href="#m85a2364ee4" y="222.768117"/>
     <use style="fill:#4682b4;stroke:#4682b4;" x="306.836029" xlink:href="#m85a2364ee4" y="213.897731"/>
     <use style="fill:#4682b4;stroke:#4682b4;" x="303.298922" xlink:href="#m85a2364ee4" y="218.965829"/>
     <use style="fill:#4682b4;stroke:#4682b4;" x="310.746357" xlink:href="#m85a2364ee4" y="207.966091"/>
     <use style="fill:#4682b4;stroke:#4682b4;" x="391.005083" xlink:href="#m85a2364ee4" y="20.179061"/>
     <use style="fill:#4682b4;stroke:#4682b4;" x="294.810161" xlink:href="#m85a2364ee4" y="233.550238"/>
     <use style="fill:#4682b4;stroke:#4682b4;" x="81.385423" xlink:href="#m85a2364ee4" y="260.882057"/>
     <use style="fill:#4682b4;stroke:#4682b4;" x="376.904387" xlink:href="#m85a2364ee4" y="58.502056"/>
     <use style="fill:#4682b4;stroke:#4682b4;" x="384.309647" xlink:href="#m85a2364ee4" y="39.731939"/>
     <use style="fill:#4682b4;stroke:#4682b4;" x="382.939428" xlink:href="#m85a2364ee4" y="41.519779"/>
     <use style="fill:#4682b4;stroke:#4682b4;" x="124.565354" xlink:href="#m85a2364ee4" y="259.979429"/>
     <use style="fill:#4682b4;stroke:#4682b4;" x="382.939428" xlink:href="#m85a2364ee4" y="41.519779"/>
     <use style="fill:#4682b4;stroke:#4682b4;" x="348.577604" xlink:href="#m85a2364ee4" y="149.63161"/>
     <use style="fill:#4682b4;stroke:#4682b4;" x="248.184388" xlink:href="#m85a2364ee4" y="240.295036"/>
     <use style="fill:#4682b4;stroke:#4682b4;" x="379.071501" xlink:href="#m85a2364ee4" y="49.163644"/>
     <use style="fill:#4682b4;stroke:#4682b4;" x="179.882259" xlink:href="#m85a2364ee4" y="251.520439"/>
     <use style="fill:#4682b4;stroke:#4682b4;" x="345.247289" xlink:href="#m85a2364ee4" y="158.226201"/>
     <use style="fill:#4682b4;stroke:#4682b4;" x="319.627273" xlink:href="#m85a2364ee4" y="190.036426"/>
     <use style="fill:#4682b4;stroke:#4682b4;" x="161.04849" xlink:href="#m85a2364ee4" y="256.536937"/>
     <use style="fill:#4682b4;stroke:#4682b4;" x="293.823367" xlink:href="#m85a2364ee4" y="234.379821"/>
     <use style="fill:#4682b4;stroke:#4682b4;" x="316.245714" xlink:href="#m85a2364ee4" y="193.912615"/>
    </g>
   </g>
   <g id="patch_3">
    <path d="M 51.325 273.312 
L 51.325 7.2 
" style="fill:none;stroke:#000000;stroke-linecap:square;stroke-linejoin:miter;stroke-width:0.8;"/>
   </g>
   <g id="patch_4">
    <path d="M 408.445 273.312 
L 408.445 7.2 
" style="fill:none;stroke:#000000;stroke-linecap:square;stroke-linejoin:miter;stroke-width:0.8;"/>
   </g>
   <g id="patch_5">
    <path d="M 51.325 273.312 
L 408.445 273.312 
" style="fill:none;stroke:#000000;stroke-linecap:square;stroke-linejoin:miter;stroke-width:0.8;"/>
   </g>
   <g id="patch_6">
    <path d="M 51.325 7.2 
L 408.445 7.2 
" style="fill:none;stroke:#000000;stroke-linecap:square;stroke-linejoin:miter;stroke-width:0.8;"/>
   </g>
  </g>
 </g>
 <defs>
  <clipPath id="p8e0df9e834">
   <rect height="266.112" width="357.12" x="51.325" y="7.2"/>
  </clipPath>
 </defs>
</svg>
